<?xml version="1.0" encoding="UTF-8" standalone="no"?>
<!DOCTYPE svg PUBLIC "-//W3C//DTD SVG 1.1//EN"
 "http://www.w3.org/Graphics/SVG/1.1/DTD/svg11.dtd">
<!-- Generated by graphviz version 14.1.2 (20260124.0452)
 -->
<!-- Pages: 1 -->
<svg width="1152pt" height="1065pt"
 viewBox="0.00 0.00 1152.00 1065.00" xmlns="http://www.w3.org/2000/svg" xmlns:xlink="http://www.w3.org/1999/xlink">
<g id="graph0" class="graph" transform="scale(0.845369 0.845369) rotate(0) translate(4 1255.25)">
<polygon fill="white" stroke="none" points="-4,4 -4,-1255.25 1358.72,-1255.25 1358.72,4 -4,4"/>
<g id="clust1" class="cluster">
<title>cluster_legend</title>
<path fill="none" stroke="gray" d="M664.26,-1169C664.26,-1169 1063.26,-1169 1063.26,-1169 1069.26,-1169 1075.26,-1175 1075.26,-1181 1075.26,-1181 1075.26,-1231.25 1075.26,-1231.25 1075.26,-1237.25 1069.26,-1243.25 1063.26,-1243.25 1063.26,-1243.25 664.26,-1243.25 664.26,-1243.25 658.26,-1243.25 652.26,-1237.25 652.26,-1231.25 652.26,-1231.25 652.26,-1181 652.26,-1181 652.26,-1175 658.26,-1169 664.26,-1169"/>
<text xml:space="preserve" text-anchor="middle" x="863.76" y="-1227.85" font-family="Times,serif" font-size="12.00">Legend</text>
</g>
<!-- init -->
<g id="node1" class="node">
<title>init</title>
<path fill="#99ff99" stroke="black" d="M798.89,-1124.5C798.89,-1124.5 465.64,-1124.5 465.64,-1124.5 459.64,-1124.5 453.64,-1118.5 453.64,-1112.5 453.64,-1112.5 453.64,-930.5 453.64,-930.5 453.64,-924.5 459.64,-918.5 465.64,-918.5 465.64,-918.5 798.89,-918.5 798.89,-918.5 804.89,-918.5 810.89,-924.5 810.89,-930.5 810.89,-930.5 810.89,-1112.5 810.89,-1112.5 810.89,-1118.5 804.89,-1124.5 798.89,-1124.5"/>
<text xml:space="preserve" text-anchor="middle" x="632.26" y="-1107.2" font-family="Times,serif" font-size="14.00">STATE_INIT</text>
<text xml:space="preserve" text-anchor="middle" x="632.26" y="-1090.7" font-family="Times,serif" font-size="14.00">═══════════════════════════════════</text>
<text xml:space="preserve" text-anchor="middle" x="632.26" y="-1074.2" font-family="Times,serif" font-size="14.00">ENTRY:</text>
<text xml:space="preserve" text-anchor="middle" x="632.26" y="-1057.7" font-family="Times,serif" font-size="14.00"> &#160;current_state_id = STATE_INIT</text>
<text xml:space="preserve" text-anchor="middle" x="632.26" y="-1041.2" font-family="Times,serif" font-size="14.00"> &#160;current_floor = read_floor_sensor()</text>
<text xml:space="preserve" text-anchor="middle" x="632.26" y="-1024.7" font-family="Times,serif" font-size="14.00"> &#160;if (current_floor != &#45;1):</text>
<text xml:space="preserve" text-anchor="middle" x="632.26" y="-1008.2" font-family="Times,serif" font-size="14.00"> &#160;&#160;&#160;&#160;&#160;fsm_transition(state_idle)</text>
<text xml:space="preserve" text-anchor="middle" x="632.26" y="-991.7" font-family="Times,serif" font-size="14.00"> &#160;else:</text>
<text xml:space="preserve" text-anchor="middle" x="632.26" y="-975.2" font-family="Times,serif" font-size="14.00"> &#160;&#160;&#160;&#160;&#160;set_motor_direction(DIR_DOWN)</text>
<text xml:space="preserve" text-anchor="middle" x="632.26" y="-958.7" font-family="Times,serif" font-size="14.00">───────────────────────────────────</text>
<text xml:space="preserve" text-anchor="middle" x="632.26" y="-942.2" font-family="Times,serif" font-size="14.00">EXIT:</text>
<text xml:space="preserve" text-anchor="middle" x="632.26" y="-925.7" font-family="Times,serif" font-size="14.00"> &#160;(no action)</text>
</g>
<!-- idle -->
<g id="node2" class="node">
<title>idle</title>
<path fill="#cce6ff" stroke="black" d="M798.89,-866C798.89,-866 465.64,-866 465.64,-866 459.64,-866 453.64,-860 453.64,-854 453.64,-854 453.64,-721.5 453.64,-721.5 453.64,-715.5 459.64,-709.5 465.64,-709.5 465.64,-709.5 798.89,-709.5 798.89,-709.5 804.89,-709.5 810.89,-715.5 810.89,-721.5 810.89,-721.5 810.89,-854 810.89,-854 810.89,-860 804.89,-866 798.89,-866"/>
<text xml:space="preserve" text-anchor="middle" x="632.26" y="-848.7" font-family="Times,serif" font-size="14.00">STATE_IDLE</text>
<text xml:space="preserve" text-anchor="middle" x="632.26" y="-832.2" font-family="Times,serif" font-size="14.00">═══════════════════════════════════</text>
<text xml:space="preserve" text-anchor="middle" x="632.26" y="-815.7" font-family="Times,serif" font-size="14.00">ENTRY:</text>
<text xml:space="preserve" text-anchor="middle" x="632.26" y="-799.2" font-family="Times,serif" font-size="14.00"> &#160;current_state_id = STATE_IDLE</text>
<text xml:space="preserve" text-anchor="middle" x="632.26" y="-782.7" font-family="Times,serif" font-size="14.00"> &#160;set_motor_direction(DIR_STOP)</text>
<text xml:space="preserve" text-anchor="middle" x="632.26" y="-766.2" font-family="Times,serif" font-size="14.00"> &#160;current_direction = DIR_STOP</text>
<text xml:space="preserve" text-anchor="middle" x="632.26" y="-749.7" font-family="Times,serif" font-size="14.00">───────────────────────────────────</text>
<text xml:space="preserve" text-anchor="middle" x="632.26" y="-733.2" font-family="Times,serif" font-size="14.00">EXIT:</text>
<text xml:space="preserve" text-anchor="middle" x="632.26" y="-716.7" font-family="Times,serif" font-size="14.00"> &#160;(no action)</text>
</g>
<!-- init&#45;&gt;idle -->
<g id="edge2" class="edge">
<title>init&#45;&gt;idle</title>
<path fill="none" stroke="black" stroke-width="2" d="M632.26,-918.18C632.26,-905.08 632.26,-891.75 632.26,-878.87"/>
<polygon fill="black" stroke="black" stroke-width="2" points="635.76,-879.19 632.26,-869.19 628.76,-879.19 635.76,-879.19"/>
<text xml:space="preserve" text-anchor="middle" x="661.14" y="-887.2" font-family="Times,serif" font-size="14.00">floor != &#45;1</text>
</g>
<!-- moving_up -->
<g id="node3" class="node">
<title>moving_up</title>
<path fill="#cce6ff" stroke="black" d="M389.89,-640.5C389.89,-640.5 56.64,-640.5 56.64,-640.5 50.64,-640.5 44.64,-634.5 44.64,-628.5 44.64,-628.5 44.64,-496 44.64,-496 44.64,-490 50.64,-484 56.64,-484 56.64,-484 389.89,-484 389.89,-484 395.89,-484 401.89,-490 401.89,-496 401.89,-496 401.89,-628.5 401.89,-628.5 401.89,-634.5 395.89,-640.5 389.89,-640.5"/>
<text xml:space="preserve" text-anchor="middle" x="223.26" y="-623.2" font-family="Times,serif" font-size="14.00">STATE_MOVING_UP</text>
<text xml:space="preserve" text-anchor="middle" x="223.26" y="-606.7" font-family="Times,serif" font-size="14.00">═══════════════════════════════════</text>
<text xml:space="preserve" text-anchor="middle" x="223.26" y="-590.2" font-family="Times,serif" font-size="14.00">ENTRY:</text>
<text xml:space="preserve" text-anchor="middle" x="223.26" y="-573.7" font-family="Times,serif" font-size="14.00"> &#160;current_state_id = STATE_MOVING_UP</text>
<text xml:space="preserve" text-anchor="middle" x="223.26" y="-557.2" font-family="Times,serif" font-size="14.00"> &#160;current_direction = DIR_UP</text>
<text xml:space="preserve" text-anchor="middle" x="223.26" y="-540.7" font-family="Times,serif" font-size="14.00"> &#160;set_motor_direction(DIR_UP)</text>
<text xml:space="preserve" text-anchor="middle" x="223.26" y="-524.2" font-family="Times,serif" font-size="14.00">───────────────────────────────────</text>
<text xml:space="preserve" text-anchor="middle" x="223.26" y="-507.7" font-family="Times,serif" font-size="14.00">EXIT:</text>
<text xml:space="preserve" text-anchor="middle" x="223.26" y="-491.2" font-family="Times,serif" font-size="14.00"> &#160;set_motor_direction(DIR_STOP)</text>
</g>
<!-- idle&#45;&gt;moving_up -->
<g id="edge3" class="edge">
<title>idle&#45;&gt;moving_up</title>
<path fill="none" stroke="black" stroke-width="2" d="M453.26,-761.07C367.94,-745.21 278.17,-722.02 249.01,-691.5 238.88,-680.9 232.22,-667.48 227.93,-653.35"/>
<polygon fill="black" stroke="black" stroke-width="2" points="231.34,-652.56 225.48,-643.73 224.55,-654.28 231.34,-652.56"/>
<text xml:space="preserve" text-anchor="middle" x="307.14" y="-678.2" font-family="Times,serif" font-size="14.00">has_orders() &amp;&amp;</text>
<text xml:space="preserve" text-anchor="middle" x="307.14" y="-661.7" font-family="Times,serif" font-size="14.00">next_dir == DIR_UP</text>
</g>
<!-- moving_down -->
<g id="node4" class="node">
<title>moving_down</title>
<path fill="#cce6ff" stroke="black" d="M764.89,-640.5C764.89,-640.5 431.64,-640.5 431.64,-640.5 425.64,-640.5 419.64,-634.5 419.64,-628.5 419.64,-628.5 419.64,-496 419.64,-496 419.64,-490 425.64,-484 431.64,-484 431.64,-484 764.89,-484 764.89,-484 770.89,-484 776.89,-490 776.89,-496 776.89,-496 776.89,-628.5 776.89,-628.5 776.89,-634.5 770.89,-640.5 764.89,-640.5"/>
<text xml:space="preserve" text-anchor="middle" x="598.26" y="-623.2" font-family="Times,serif" font-size="14.00">STATE_MOVING_DOWN</text>
<text xml:space="preserve" text-anchor="middle" x="598.26" y="-606.7" font-family="Times,serif" font-size="14.00">═══════════════════════════════════</text>
<text xml:space="preserve" text-anchor="middle" x="598.26" y="-590.2" font-family="Times,serif" font-size="14.00">ENTRY:</text>
<text xml:space="preserve" text-anchor="middle" x="598.26" y="-573.7" font-family="Times,serif" font-size="14.00"> &#160;current_state_id = STATE_MOVING_DOWN</text>
<text xml:space="preserve" text-anchor="middle" x="598.26" y="-557.2" font-family="Times,serif" font-size="14.00"> &#160;current_direction = DIR_DOWN</text>
<text xml:space="preserve" text-anchor="middle" x="598.26" y="-540.7" font-family="Times,serif" font-size="14.00"> &#160;set_motor_direction(DIR_DOWN)</text>
<text xml:space="preserve" text-anchor="middle" x="598.26" y="-524.2" font-family="Times,serif" font-size="14.00">───────────────────────────────────</text>
<text xml:space="preserve" text-anchor="middle" x="598.26" y="-507.7" font-family="Times,serif" font-size="14.00">EXIT:</text>
<text xml:space="preserve" text-anchor="middle" x="598.26" y="-491.2" font-family="Times,serif" font-size="14.00"> &#160;set_motor_direction(DIR_STOP)</text>
</g>
<!-- idle&#45;&gt;moving_down -->
<g id="edge4" class="edge">
<title>idle&#45;&gt;moving_down</title>
<path fill="none" stroke="black" stroke-width="2" d="M559.66,-709.1C556.48,-703.39 553.72,-697.5 551.51,-691.5 547.01,-679.24 546.62,-666.31 548.77,-653.57"/>
<polygon fill="black" stroke="black" stroke-width="2" points="552.17,-654.4 551.03,-643.87 545.35,-652.82 552.17,-654.4"/>
<text xml:space="preserve" text-anchor="middle" x="622.39" y="-678.2" font-family="Times,serif" font-size="14.00">has_orders() &amp;&amp;</text>
<text xml:space="preserve" text-anchor="middle" x="622.39" y="-661.7" font-family="Times,serif" font-size="14.00">next_dir == DIR_DOWN</text>
</g>
<!-- door_open -->
<g id="node5" class="node">
<title>door_open</title>
<path fill="#ffffcc" stroke="black" d="M969.89,-431.5C969.89,-431.5 636.64,-431.5 636.64,-431.5 630.64,-431.5 624.64,-425.5 624.64,-419.5 624.64,-419.5 624.64,-270.5 624.64,-270.5 624.64,-264.5 630.64,-258.5 636.64,-258.5 636.64,-258.5 969.89,-258.5 969.89,-258.5 975.89,-258.5 981.89,-264.5 981.89,-270.5 981.89,-270.5 981.89,-419.5 981.89,-419.5 981.89,-425.5 975.89,-431.5 969.89,-431.5"/>
<text xml:space="preserve" text-anchor="middle" x="803.26" y="-414.2" font-family="Times,serif" font-size="14.00">STATE_DOOR_OPEN</text>
<text xml:space="preserve" text-anchor="middle" x="803.26" y="-397.7" font-family="Times,serif" font-size="14.00">═══════════════════════════════════</text>
<text xml:space="preserve" text-anchor="middle" x="803.26" y="-381.2" font-family="Times,serif" font-size="14.00">ENTRY:</text>
<text xml:space="preserve" text-anchor="middle" x="803.26" y="-364.7" font-family="Times,serif" font-size="14.00"> &#160;current_state_id = STATE_DOOR_OPEN</text>
<text xml:space="preserve" text-anchor="middle" x="803.26" y="-348.2" font-family="Times,serif" font-size="14.00"> &#160;set_motor_direction(DIR_STOP)</text>
<text xml:space="preserve" text-anchor="middle" x="803.26" y="-331.7" font-family="Times,serif" font-size="14.00"> &#160;clear_orders_at_floor(floor, dir)</text>
<text xml:space="preserve" text-anchor="middle" x="803.26" y="-315.2" font-family="Times,serif" font-size="14.00"> &#160;door_control_open_door()</text>
<text xml:space="preserve" text-anchor="middle" x="803.26" y="-298.7" font-family="Times,serif" font-size="14.00">───────────────────────────────────</text>
<text xml:space="preserve" text-anchor="middle" x="803.26" y="-282.2" font-family="Times,serif" font-size="14.00">EXIT:</text>
<text xml:space="preserve" text-anchor="middle" x="803.26" y="-265.7" font-family="Times,serif" font-size="14.00"> &#160;door_control_close_door()</text>
</g>
<!-- idle&#45;&gt;door_open -->
<g id="edge5" class="edge">
<title>idle&#45;&gt;door_open</title>
<path fill="none" stroke="black" stroke-width="2" d="M765.98,-709.03C770.88,-703.5 775.35,-697.66 779.26,-691.5 825.76,-618.34 827.5,-518.02 820.14,-444.32"/>
<polygon fill="black" stroke="black" stroke-width="2" points="823.67,-444.38 819.11,-434.82 816.71,-445.14 823.67,-444.38"/>
<text xml:space="preserve" text-anchor="middle" x="908.53" y="-557.2" font-family="Times,serif" font-size="14.00">should_stop(floor, DIR_STOP)</text>
</g>
<!-- emergency -->
<g id="node6" class="node">
<title>emergency</title>
<path fill="#ffcccc" stroke="black" d="M624.89,-206C624.89,-206 291.64,-206 291.64,-206 285.64,-206 279.64,-200 279.64,-194 279.64,-194 279.64,-12 279.64,-12 279.64,-6 285.64,0 291.64,0 291.64,0 624.89,0 624.89,0 630.89,0 636.89,-6 636.89,-12 636.89,-12 636.89,-194 636.89,-194 636.89,-200 630.89,-206 624.89,-206"/>
<text xml:space="preserve" text-anchor="middle" x="458.26" y="-188.7" font-family="Times,serif" font-size="14.00">STATE_EMERGENCY_STOP</text>
<text xml:space="preserve" text-anchor="middle" x="458.26" y="-172.2" font-family="Times,serif" font-size="14.00">═══════════════════════════════════</text>
<text xml:space="preserve" text-anchor="middle" x="458.26" y="-155.7" font-family="Times,serif" font-size="14.00">ENTRY:</text>
<text xml:space="preserve" text-anchor="middle" x="458.26" y="-139.2" font-family="Times,serif" font-size="14.00"> &#160;current_state_id = STATE_EMERGENCY_STOP</text>
<text xml:space="preserve" text-anchor="middle" x="458.26" y="-122.7" font-family="Times,serif" font-size="14.00"> &#160;set_motor_direction(DIR_STOP)</text>
<text xml:space="preserve" text-anchor="middle" x="458.26" y="-106.2" font-family="Times,serif" font-size="14.00"> &#160;if (current_floor != &#45;1):</text>
<text xml:space="preserve" text-anchor="middle" x="458.26" y="-89.7" font-family="Times,serif" font-size="14.00"> &#160;&#160;&#160;&#160;&#160;door_control_open_door()</text>
<text xml:space="preserve" text-anchor="middle" x="458.26" y="-73.2" font-family="Times,serif" font-size="14.00"> &#160;order_manager_clear_all_orders()</text>
<text xml:space="preserve" text-anchor="middle" x="458.26" y="-56.7" font-family="Times,serif" font-size="14.00">───────────────────────────────────</text>
<text xml:space="preserve" text-anchor="middle" x="458.26" y="-40.2" font-family="Times,serif" font-size="14.00">EXIT:</text>
<text xml:space="preserve" text-anchor="middle" x="458.26" y="-23.7" font-family="Times,serif" font-size="14.00"> &#160;if (current_floor != &#45;1):</text>
<text xml:space="preserve" text-anchor="middle" x="458.26" y="-7.2" font-family="Times,serif" font-size="14.00"> &#160;&#160;&#160;&#160;&#160;door_control_close_door()</text>
</g>
<!-- idle&#45;&gt;emergency -->
<g id="edge11" class="edge">
<title>idle&#45;&gt;emergency</title>
<path fill="none" stroke="red" stroke-width="2" d="M453.33,-767.47C296.53,-746.41 85.92,-706.55 35.26,-640.5 -79.08,-491.42 110.02,-321.43 270.83,-213.48"/>
<polygon fill="red" stroke="red" stroke-width="2" points="272.47,-216.59 278.85,-208.14 268.59,-210.77 272.47,-216.59"/>
<text xml:space="preserve" text-anchor="middle" x="99.1" y="-452.7" font-family="Times,serif" font-size="14.00">EVENT_STOP_PRESSED</text>
</g>
<!-- moving_up&#45;&gt;idle -->
<g id="edge7" class="edge">
<title>moving_up&#45;&gt;idle</title>
<path fill="none" stroke="black" stroke-width="2" stroke-dasharray="5,2" d="M339.18,-640.88C348.01,-646.83 356.78,-652.76 365.26,-658.5 386.77,-673.07 390.78,-678.92 413.51,-691.5 422.7,-696.58 432.2,-701.59 441.88,-706.49"/>
<polygon fill="black" stroke="black" stroke-width="2" points="440.09,-709.51 450.61,-710.84 443.22,-703.24 440.09,-709.51"/>
<text xml:space="preserve" text-anchor="middle" x="478.39" y="-678.2" font-family="Times,serif" font-size="14.00">floor &gt;= N_FLOORS&#45;1</text>
<text xml:space="preserve" text-anchor="middle" x="478.39" y="-661.7" font-family="Times,serif" font-size="14.00">(top floor)</text>
</g>
<!-- moving_up&#45;&gt;door_open -->
<g id="edge6" class="edge">
<title>moving_up&#45;&gt;door_open</title>
<path fill="none" stroke="black" stroke-width="2" d="M363.17,-483.57C391.78,-470.35 422.19,-458.13 451.76,-449.5 519.82,-429.64 541.84,-450.07 610.26,-431.5 610.85,-431.34 611.44,-431.18 612.02,-431.02"/>
<polygon fill="black" stroke="black" stroke-width="2" points="612.88,-434.41 621.5,-428.25 610.92,-427.7 612.88,-434.41"/>
<text xml:space="preserve" text-anchor="middle" x="529.01" y="-452.7" font-family="Times,serif" font-size="14.00">should_stop(floor, DIR_UP)</text>
</g>
<!-- moving_up&#45;&gt;emergency -->
<g id="edge12" class="edge">
<title>moving_up&#45;&gt;emergency</title>
<path fill="none" stroke="red" stroke-width="2" d="M225.94,-483.77C231.16,-419.62 245.76,-328.05 285.76,-258.5 294.39,-243.5 305,-229.17 316.67,-215.72"/>
<polygon fill="red" stroke="red" stroke-width="2" points="319.23,-218.1 323.32,-208.33 314.03,-213.42 319.23,-218.1"/>
<text xml:space="preserve" text-anchor="middle" x="360.01" y="-339.95" font-family="Times,serif" font-size="14.00">EVENT_STOP_PRESSED</text>
</g>
<!-- moving_down&#45;&gt;idle -->
<g id="edge9" class="edge">
<title>moving_down&#45;&gt;idle</title>
<path fill="none" stroke="black" stroke-width="2" stroke-dasharray="5,2" d="M684.16,-640.95C687.68,-646.6 690.76,-652.46 693.26,-658.5 698.47,-671.1 698.59,-684.25 695.56,-697.12"/>
<polygon fill="black" stroke="black" stroke-width="2" points="692.28,-695.86 692.65,-706.45 698.97,-697.94 692.28,-695.86"/>
<text xml:space="preserve" text-anchor="middle" x="736.56" y="-678.2" font-family="Times,serif" font-size="14.00">floor &lt;= 0</text>
<text xml:space="preserve" text-anchor="middle" x="736.56" y="-661.7" font-family="Times,serif" font-size="14.00">(bottom floor)</text>
</g>
<!-- moving_down&#45;&gt;door_open -->
<g id="edge8" class="edge">
<title>moving_down&#45;&gt;door_open</title>
<path fill="none" stroke="black" stroke-width="2" d="M603.72,-483.71C607.06,-471.51 612.02,-459.61 619.26,-449.5 621.3,-446.67 623.43,-443.9 625.66,-441.2"/>
<polygon fill="black" stroke="black" stroke-width="2" points="628.06,-443.77 632.1,-433.97 622.83,-439.11 628.06,-443.77"/>
<text xml:space="preserve" text-anchor="middle" x="709.26" y="-452.7" font-family="Times,serif" font-size="14.00">should_stop(floor, DIR_DOWN)</text>
</g>
<!-- moving_down&#45;&gt;emergency -->
<g id="edge13" class="edge">
<title>moving_down&#45;&gt;emergency</title>
<path fill="none" stroke="red" stroke-width="2" d="M501.09,-483.55C487.23,-467.86 474.93,-450.33 466.76,-431.5 438.03,-365.21 435.72,-284.07 440.68,-219.14"/>
<polygon fill="red" stroke="red" stroke-width="2" points="444.15,-219.65 441.51,-209.39 437.18,-219.06 444.15,-219.65"/>
<text xml:space="preserve" text-anchor="middle" x="541.01" y="-339.95" font-family="Times,serif" font-size="14.00">EVENT_STOP_PRESSED</text>
</g>
<!-- door_open&#45;&gt;idle -->
<g id="edge10" class="edge">
<title>door_open&#45;&gt;idle</title>
<path fill="none" stroke="black" stroke-width="2" d="M956.82,-431.98C973.02,-447.21 987.22,-464.53 997.26,-484 1029.15,-545.82 1036.24,-582.89 997.26,-640.5 957.47,-699.32 889.75,-734.48 823.36,-755.5"/>
<polygon fill="black" stroke="black" stroke-width="2" points="822.44,-752.13 813.89,-758.39 824.47,-758.83 822.44,-752.13"/>
<text xml:space="preserve" text-anchor="middle" x="1112.78" y="-565.45" font-family="Times,serif" font-size="14.00">door_state == DOOR_CLOSED</text>
<text xml:space="preserve" text-anchor="middle" x="1112.78" y="-548.95" font-family="Times,serif" font-size="14.00">(timer expired)</text>
</g>
<!-- door_open&#45;&gt;emergency -->
<g id="edge14" class="edge">
<title>door_open&#45;&gt;emergency</title>
<path fill="none" stroke="red" stroke-width="2" d="M679.68,-258.03C659,-243.64 637.29,-228.54 615.89,-213.65"/>
<polygon fill="red" stroke="red" stroke-width="2" points="618.1,-210.93 607.89,-208.09 614.1,-216.68 618.1,-210.93"/>
<text xml:space="preserve" text-anchor="middle" x="725.67" y="-227.2" font-family="Times,serif" font-size="14.00">EVENT_STOP_PRESSED</text>
</g>
<!-- emergency&#45;&gt;idle -->
<g id="edge15" class="edge">
<title>emergency&#45;&gt;idle</title>
<path fill="none" stroke="green" stroke-width="2" d="M637.14,-128.69C828.24,-166.48 1115.76,-259.66 1205.26,-484 1231.04,-548.6 1247.93,-585.57 1205.26,-640.5 1158.29,-700.97 971.55,-740.62 823.84,-763.19"/>
<polygon fill="green" stroke="green" stroke-width="2" points="823.39,-759.71 814.03,-764.66 824.44,-766.64 823.39,-759.71"/>
<text xml:space="preserve" text-anchor="middle" x="1274.84" y="-452.7" font-family="Times,serif" font-size="14.00">EVENT_STOP_RELEASED</text>
</g>
<!-- start -->
<g id="node7" class="node">
<title>start</title>
<ellipse fill="black" stroke="black" cx="632.26" cy="-1195" rx="10.8" ry="10.8"/>
</g>
<!-- start&#45;&gt;init -->
<g id="edge1" class="edge">
<title>start&#45;&gt;init</title>
<path fill="none" stroke="black" stroke-width="2" d="M632.26,-1183.79C632.26,-1173.55 632.26,-1156.6 632.26,-1137.44"/>
<polygon fill="black" stroke="black" stroke-width="2" points="635.76,-1137.61 632.26,-1127.61 628.76,-1137.61 635.76,-1137.61"/>
<text xml:space="preserve" text-anchor="middle" x="667.14" y="-1145.7" font-family="Times,serif" font-size="14.00">System Start</text>
</g>
<!-- leg1 -->
<g id="node8" class="node">
<title>leg1</title>
<path fill="#99ff99" stroke="black" d="M727.76,-1213C727.76,-1213 672.76,-1213 672.76,-1213 666.76,-1213 660.76,-1207 660.76,-1201 660.76,-1201 660.76,-1189 660.76,-1189 660.76,-1183 666.76,-1177 672.76,-1177 672.76,-1177 727.76,-1177 727.76,-1177 733.76,-1177 739.76,-1183 739.76,-1189 739.76,-1189 739.76,-1201 739.76,-1201 739.76,-1207 733.76,-1213 727.76,-1213"/>
<text xml:space="preserve" text-anchor="middle" x="700.26" y="-1189.95" font-family="Times,serif" font-size="14.00">Initial State</text>
</g>
<!-- leg2 -->
<g id="node9" class="node">
<title>leg2</title>
<path fill="#cce6ff" stroke="black" d="M834.64,-1213C834.64,-1213 769.89,-1213 769.89,-1213 763.89,-1213 757.89,-1207 757.89,-1201 757.89,-1201 757.89,-1189 757.89,-1189 757.89,-1183 763.89,-1177 769.89,-1177 769.89,-1177 834.64,-1177 834.64,-1177 840.64,-1177 846.64,-1183 846.64,-1189 846.64,-1189 846.64,-1201 846.64,-1201 846.64,-1207 840.64,-1213 834.64,-1213"/>
<text xml:space="preserve" text-anchor="middle" x="802.26" y="-1189.95" font-family="Times,serif" font-size="14.00">Normal State</text>
</g>
<!-- leg3 -->
<g id="node10" class="node">
<title>leg3</title>
<path fill="#ffffcc" stroke="black" d="M927.51,-1213C927.51,-1213 877.01,-1213 877.01,-1213 871.01,-1213 865.01,-1207 865.01,-1201 865.01,-1201 865.01,-1189 865.01,-1189 865.01,-1183 871.01,-1177 877.01,-1177 877.01,-1177 927.51,-1177 927.51,-1177 933.51,-1177 939.51,-1183 939.51,-1189 939.51,-1189 939.51,-1201 939.51,-1201 939.51,-1207 933.51,-1213 927.51,-1213"/>
<text xml:space="preserve" text-anchor="middle" x="902.26" y="-1189.95" font-family="Times,serif" font-size="14.00">Door State</text>
</g>
<!-- leg4 -->
<g id="node11" class="node">
<title>leg4</title>
<path fill="#ffcccc" stroke="black" d="M1054.76,-1213C1054.76,-1213 969.76,-1213 969.76,-1213 963.76,-1213 957.76,-1207 957.76,-1201 957.76,-1201 957.76,-1189 957.76,-1189 957.76,-1183 963.76,-1177 969.76,-1177 969.76,-1177 1054.76,-1177 1054.76,-1177 1060.76,-1177 1066.76,-1183 1066.76,-1189 1066.76,-1189 1066.76,-1201 1066.76,-1201 1066.76,-1207 1060.76,-1213 1054.76,-1213"/>
<text xml:space="preserve" text-anchor="middle" x="1012.26" y="-1189.95" font-family="Times,serif" font-size="14.00">Emergency State</text>
</g>
</g>
</svg>
