<?plantuml 1.2026.1?><svg xmlns="http://www.w3.org/2000/svg" xmlns:xlink="http://www.w3.org/1999/xlink" contentStyleType="text/css" data-diagram-type="STATE" height="767px" preserveAspectRatio="none" style="width:1078px;height:767px;background:#FFFFFF;" version="1.1" viewBox="0 0 1078 767" width="1078px" zoomAndPan="magnify"><defs/><g><g><rect fill="#ADD8E6" height="64.7539" rx="12.5" ry="12.5" style="stroke:#00008B;stroke-width:0.5;" width="217.5664" x="395.45" y="87"/><line style="stroke:#00008B;stroke-width:0.5;" x1="395.45" x2="613.0164" y1="113.4883" y2="113.4883"/><text fill="#000000" font-family="sans-serif" font-size="14" lengthAdjust="spacing" textLength="27.2617" x="490.6023" y="105.5352">INIT</text><text fill="#000000" font-family="sans-serif" font-size="12" lengthAdjust="spacing" textLength="139.4414" x="400.45" y="130.0898">entry/ read floor sensor</text><text fill="#000000" font-family="sans-serif" font-size="12" lengthAdjust="spacing" textLength="197.5664" x="400.45" y="144.2227">tick/ move down until floor found</text></g><g><rect fill="#ADD8E6" height="50.6211" rx="12.5" ry="12.5" style="stroke:#00008B;stroke-width:0.5;" width="124.5605" x="441.95" y="228.76"/><line style="stroke:#00008B;stroke-width:0.5;" x1="441.95" x2="566.5105" y1="255.2483" y2="255.2483"/><text fill="#000000" font-family="sans-serif" font-size="14" lengthAdjust="spacing" textLength="29.5723" x="489.4441" y="247.2952">IDLE</text><text fill="#000000" font-family="sans-serif" font-size="12" lengthAdjust="spacing" textLength="104.5605" x="446.95" y="271.8498">entry/ stop motor</text></g><g><rect fill="#ADD8E6" height="64.7539" rx="12.5" ry="12.5" style="stroke:#00008B;stroke-width:0.5;" width="116.7617" x="224.85" y="356.38"/><line style="stroke:#00008B;stroke-width:0.5;" x1="224.85" x2="341.6117" y1="382.8683" y2="382.8683"/><text fill="#000000" font-family="sans-serif" font-size="14" lengthAdjust="spacing" textLength="81.0195" x="242.7211" y="374.9152">MOVING_UP</text><text fill="#000000" font-family="sans-serif" font-size="12" lengthAdjust="spacing" textLength="93.9785" x="229.85" y="399.4698">entry/ motor UP</text><text fill="#000000" font-family="sans-serif" font-size="12" lengthAdjust="spacing" textLength="96.7617" x="229.85" y="413.6027">exit/ stop motor</text></g><g><rect fill="#ADD8E6" height="64.7539" rx="12.5" ry="12.5" style="stroke:#00008B;stroke-width:0.5;" width="136.4727" x="458.99" y="356.38"/><line style="stroke:#00008B;stroke-width:0.5;" x1="458.99" x2="595.4627" y1="382.8683" y2="382.8683"/><text fill="#000000" font-family="sans-serif" font-size="14" lengthAdjust="spacing" textLength="107.2627" x="473.595" y="374.9152">MOVING_DOWN</text><text fill="#000000" font-family="sans-serif" font-size="12" lengthAdjust="spacing" textLength="116.4727" x="463.99" y="399.4698">entry/ motor DOWN</text><text fill="#000000" font-family="sans-serif" font-size="12" lengthAdjust="spacing" textLength="96.7617" x="463.99" y="413.6027">exit/ stop motor</text></g><g><rect fill="#ADD8E6" height="93.0195" rx="12.5" ry="12.5" style="stroke:#00008B;stroke-width:0.5;" width="196.7246" x="614.87" y="498.13"/><line style="stroke:#00008B;stroke-width:0.5;" x1="614.87" x2="811.5946" y1="524.6183" y2="524.6183"/><text fill="#000000" font-family="sans-serif" font-size="14" lengthAdjust="spacing" textLength="84.6357" x="670.9144" y="516.6652">DOOR_OPEN</text><text fill="#000000" font-family="sans-serif" font-size="12" lengthAdjust="spacing" textLength="176.7246" x="619.87" y="541.2198">entry/ clear orders, open door</text><text fill="#000000" font-family="sans-serif" font-size="12" lengthAdjust="spacing" textLength="130.2012" x="619.87" y="555.3527">tick/ check door timer</text><text fill="#000000" font-family="sans-serif" font-size="12" lengthAdjust="spacing" textLength="140.3379" x="619.87" y="569.4855">obstruction/ reset timer</text><text fill="#000000" font-family="sans-serif" font-size="12" lengthAdjust="spacing" textLength="92.8828" x="619.87" y="583.6183">exit/ close door</text></g><g><rect fill="#ADD8E6" height="93.0195" rx="12.5" ry="12.5" style="stroke:#00008B;stroke-width:0.5;" width="218.6973" x="382.88" y="668.15"/><line style="stroke:#00008B;stroke-width:0.5;" x1="382.88" x2="601.5773" y1="694.6383" y2="694.6383"/><text fill="#000000" font-family="sans-serif" font-size="14" lengthAdjust="spacing" textLength="124.5508" x="429.9532" y="686.6852">EMERGENCY_STOP</text><text fill="#000000" font-family="sans-serif" font-size="12" lengthAdjust="spacing" textLength="198.6973" x="387.88" y="711.2398">entry/ stop motor, clear all orders</text><text fill="#000000" font-family="sans-serif" font-size="12" lengthAdjust="spacing" textLength="165.6738" x="387.88" y="725.3727">entry/ open door (if at floor)</text><text fill="#000000" font-family="sans-serif" font-size="12" lengthAdjust="spacing" textLength="123" x="387.88" y="739.5055">tick/ keep door open</text><text fill="#000000" font-family="sans-serif" font-size="12" lengthAdjust="spacing" textLength="158.6074" x="387.88" y="753.6383">exit/ close door (if at floor)</text></g><ellipse cx="504.23" cy="16" fill="#222222" rx="10" ry="10" style="stroke:#222222;stroke-width:1;"/><!--link *start* to INIT--><g class="link" data-entity-1="ent0002" data-entity-2="ent0002" data-link-type="dependency" data-source-line="6" id="lnk3"><path d="M504.23,26.36 C504.23,39.98 504.23,59.94 504.23,80.82" fill="none" id="*start*-to-INIT" style="stroke:#181818;stroke-width:1;"/><polygon fill="#181818" points="504.23,86.82,508.23,77.82,504.23,81.82,500.23,77.82,504.23,86.82" style="stroke:#181818;stroke-width:1;"/></g><!--link INIT to IDLE--><g class="link" data-entity-1="ent0002" data-entity-2="ent0003" data-link-type="dependency" data-source-line="8" id="lnk4"><path d="M504.23,152.16 C504.23,175.62 504.23,201.08 504.23,222.6" fill="none" id="INIT-to-IDLE" style="stroke:#181818;stroke-width:1;"/><polygon fill="#181818" points="504.23,228.6,508.23,219.6,504.23,223.6,500.23,219.6,504.23,228.6" style="stroke:#181818;stroke-width:1;"/><text fill="#000000" font-family="sans-serif" font-size="13" lengthAdjust="spacing" textLength="88.4165" x="505.23" y="195.3284">floor detected</text></g><!--link IDLE to MOVING_UP--><g class="link" data-entity-1="ent0003" data-entity-2="ent0004" data-link-type="dependency" data-source-line="12" id="lnk5"><path d="M441.5,254.91 C347.19,256.15 175.79,264.7 137.23,309.38 C107.07,344.33 166.2476,364.9926 218.9776,376.4826" fill="none" id="IDLE-to-MOVING_UP" style="stroke:#181818;stroke-width:1;"/><polygon fill="#181818" points="224.84,377.76,216.898,371.9356,219.9546,376.6955,215.1947,379.7521,224.84,377.76" style="stroke:#181818;stroke-width:1;"/><text fill="#000000" font-family="sans-serif" font-size="13" lengthAdjust="spacing" textLength="101.4673" x="138.23" y="322.9484">has order above</text></g><!--link MOVING_UP to IDLE--><g class="link" data-entity-1="ent0004" data-entity-2="ent0003" data-link-type="dependency" data-source-line="18" id="lnk9"><path d="M286.65,356.12 C289.96,340.11 296.46,321.54 309.23,309.38 C344.73,275.57 393.4797,263.1694 435.9297,258.2594" fill="none" id="MOVING_UP-to-IDLE" style="stroke:#181818;stroke-width:1;"/><polygon fill="#181818" points="441.89,257.57,432.49,254.6306,436.9231,258.1445,433.4092,262.5776,441.89,257.57" style="stroke:#181818;stroke-width:1;"/><text fill="#000000" font-family="sans-serif" font-size="13" lengthAdjust="spacing" textLength="108.9766" x="310.23" y="322.9484">reached top floor</text></g><!--link IDLE to MOVING_DOWN--><g class="link" data-entity-1="ent0003" data-entity-2="ent0005" data-link-type="dependency" data-source-line="13" id="lnk6"><path d="M452.61,279.78 C434.26,292.19 420.33,308.4 430.23,326.38 C436.96,338.6 442.4004,345.2008 453.8204,353.4708" fill="none" id="IDLE-to-MOVING_DOWN" style="stroke:#181818;stroke-width:1;"/><polygon fill="#181818" points="458.68,356.99,453.7367,348.4715,454.6303,354.0574,449.0445,354.951,458.68,356.99" style="stroke:#181818;stroke-width:1;"/><text fill="#000000" font-family="sans-serif" font-size="13" lengthAdjust="spacing" textLength="101.334" x="431.23" y="322.9484">has order below</text></g><!--link MOVING_DOWN to IDLE--><g class="link" data-entity-1="ent0005" data-entity-2="ent0003" data-link-type="dependency" data-source-line="24" id="lnk12"><path d="M536.94,356.06 C539.93,341.63 541.45,324.44 537.23,309.38 C534.32,298.97 532.0477,293.615 526.3377,284.745" fill="none" id="MOVING_DOWN-to-IDLE" style="stroke:#181818;stroke-width:1;"/><polygon fill="#181818" points="523.09,279.7,524.5982,289.4327,525.7964,283.9042,531.3249,285.1024,523.09,279.7" style="stroke:#181818;stroke-width:1;"/><text fill="#000000" font-family="sans-serif" font-size="13" lengthAdjust="spacing" textLength="133.9609" x="540.75" y="322.9484">reached bottom floor</text></g><!--link IDLE to DOOR_OPEN--><g class="link" data-entity-1="ent0003" data-entity-2="ent0006" data-link-type="dependency" data-source-line="14" id="lnk7"><path d="M566.99,257.5 C606.34,262.53 654.82,275.77 683.23,309.38 C727.57,361.83 727.4057,439.9682 721.5257,491.8482" fill="none" id="IDLE-to-DOOR_OPEN" style="stroke:#181818;stroke-width:1;"/><polygon fill="#181818" points="720.85,497.81,725.8381,489.3177,721.4131,492.8418,717.889,488.4168,720.85,497.81" style="stroke:#181818;stroke-width:1;"/><text fill="#000000" font-family="sans-serif" font-size="13" lengthAdjust="spacing" textLength="133.7959" x="723.57" y="393.8184">order at current floor</text></g><!--link DOOR_OPEN to IDLE--><g class="link" data-entity-1="ent0006" data-entity-2="ent0003" data-link-type="dependency" data-source-line="30" id="lnk15"><path d="M792.25,497.68 C846.14,460.37 901.67,405.98 865.23,356.38 C829.97,308.38 666.5854,278.108 572.8854,264.248" fill="none" id="DOOR_OPEN-to-IDLE" style="stroke:#181818;stroke-width:1;"/><polygon fill="#181818" points="566.95,263.37,575.2678,268.6439,571.8962,264.1016,576.4384,260.73,566.95,263.37" style="stroke:#181818;stroke-width:1;"/><text fill="#000000" font-family="sans-serif" font-size="13" lengthAdjust="spacing" textLength="74.0391" x="877.91" y="393.8184">door closed</text></g><!--link IDLE to EMERGENCY_STOP--><g class="link" data-entity-1="ent0003" data-entity-2="ent0007" data-link-type="dependency" data-source-line="15" id="lnk8"><path d="M441.59,254.46 C343.84,254.99 161.96,262.47 121.23,309.38 C6,442.1 244.2287,590.7668 389.2687,664.9868" fill="none" id="IDLE-to-EMERGENCY_STOP" style="stroke:#181818;stroke-width:1;"/><polygon fill="#181818" points="394.61,667.72,388.4202,660.0593,390.1589,665.4423,384.7759,667.181,394.61,667.72" style="stroke:#181818;stroke-width:1;"/><text fill="#000000" font-family="sans-serif" font-size="13" lengthAdjust="spacing" textLength="86.0425" x="122.38" y="464.6984">STOP pressed</text></g><!--link EMERGENCY_STOP to IDLE--><g class="link" data-entity-1="ent0007" data-entity-2="ent0003" data-link-type="dependency" data-source-line="37" id="lnk17"><path d="M601.92,683.29 C772.67,630.4 1071.57,512 961.23,356.38 C916.05,292.65 686.9832,267.9487 572.7132,259.3787" fill="none" id="EMERGENCY_STOP-to-IDLE" style="stroke:#181818;stroke-width:1;"/><polygon fill="#181818" points="566.73,258.93,575.4056,263.5919,571.716,259.3039,576.0039,255.6143,566.73,258.93" style="stroke:#181818;stroke-width:1;"/><text fill="#000000" font-family="sans-serif" font-size="13" lengthAdjust="spacing" textLength="89.4131" x="981.1" y="464.6984">STOP released</text></g><!--link MOVING_UP to DOOR_OPEN--><g class="link" data-entity-1="ent0004" data-entity-2="ent0006" data-link-type="dependency" data-source-line="19" id="lnk10"><path d="M325.81,421.54 C349.75,437.89 380.85,456.74 411.23,468.13 C485.94,496.14 511.09,477.73 588.23,498.13 C596.83,500.4 599.9431,501.1986 608.7631,504.0086" fill="none" id="MOVING_UP-to-DOOR_OPEN" style="stroke:#181818;stroke-width:1;"/><polygon fill="#181818" points="614.48,505.83,607.1189,499.2867,609.7159,504.3122,604.6904,506.9092,614.48,505.83" style="stroke:#181818;stroke-width:1;"/><text fill="#000000" font-family="sans-serif" font-size="13" lengthAdjust="spacing" textLength="126.9404" x="412.23" y="464.6984">should_stop at floor</text></g><!--link MOVING_UP to EMERGENCY_STOP--><g class="link" data-entity-1="ent0004" data-entity-2="ent0007" data-link-type="dependency" data-source-line="20" id="lnk11"><path d="M301.11,421.29 C324.06,461.36 365.56,532.37 404.23,591.15 C421.22,616.96 437.6954,640.1689 454.3454,662.9089" fill="none" id="MOVING_UP-to-EMERGENCY_STOP" style="stroke:#181818;stroke-width:1;"/><polygon fill="#181818" points="457.89,667.75,455.8005,658.1253,454.9362,663.7158,449.3457,662.8515,457.89,667.75" style="stroke:#181818;stroke-width:1;"/><text fill="#000000" font-family="sans-serif" font-size="13" lengthAdjust="spacing" textLength="86.0425" x="405.23" y="549.7084">STOP pressed</text></g><!--link MOVING_DOWN to DOOR_OPEN--><g class="link" data-entity-1="ent0005" data-entity-2="ent0006" data-link-type="dependency" data-source-line="25" id="lnk13"><path d="M534.42,421.31 C539.28,436.91 547.09,455.13 559.23,468.13 C574.58,484.56 588.9494,495.0776 609.0894,505.6676" fill="none" id="MOVING_DOWN-to-DOOR_OPEN" style="stroke:#181818;stroke-width:1;"/><polygon fill="#181818" points="614.4,508.46,608.2957,500.731,609.9745,506.133,604.5725,507.8118,614.4,508.46" style="stroke:#181818;stroke-width:1;"/><text fill="#000000" font-family="sans-serif" font-size="13" lengthAdjust="spacing" textLength="126.9404" x="560.23" y="464.6984">should_stop at floor</text></g><!--link MOVING_DOWN to EMERGENCY_STOP--><g class="link" data-entity-1="ent0005" data-entity-2="ent0007" data-link-type="dependency" data-source-line="26" id="lnk14"><path d="M521.23,421.42 C517.33,442.98 512.4,472.19 509.23,498.13 C502.1,556.44 497.7003,618.0108 495.0703,661.7308" fill="none" id="MOVING_DOWN-to-EMERGENCY_STOP" style="stroke:#181818;stroke-width:1;"/><polygon fill="#181818" points="494.71,667.72,499.2432,658.9764,495.0102,662.729,491.2576,658.4961,494.71,667.72" style="stroke:#181818;stroke-width:1;"/><text fill="#000000" font-family="sans-serif" font-size="13" lengthAdjust="spacing" textLength="86.0425" x="510.23" y="549.7084">STOP pressed</text></g><!--link DOOR_OPEN to EMERGENCY_STOP--><g class="link" data-entity-1="ent0006" data-entity-2="ent0007" data-link-type="dependency" data-source-line="31" id="lnk16"><path d="M652.84,591.55 C621.66,615.26 588.4962,640.4685 557.3262,664.1685" fill="none" id="DOOR_OPEN-to-EMERGENCY_STOP" style="stroke:#181818;stroke-width:1;"/><polygon fill="#181818" points="552.55,667.8,562.1353,665.5368,556.5301,664.7737,557.2932,659.1686,552.55,667.8" style="stroke:#181818;stroke-width:1;"/><text fill="#000000" font-family="sans-serif" font-size="13" lengthAdjust="spacing" textLength="86.0425" x="610.36" y="634.7184">STOP pressed</text></g><?plantuml-src ZPFBJkj038RtUGel0O7Ois01ZL0bQ2fkHqS8LTCPbqQPnj6CmqNelFkP6stI14GMYIR-RN-_uzYgh1jXn0Oi2qRupC1T5q9MBuRQMbsI9WFNvSkQBtIBCKf6eOcHYJ1L2FpBigUZPpWvEOVfR7gVPVuUZvFh7CvWfSdf5J9AHXN3Pu0rcuzJC2XKKbYiBPclE9UoEeKDlI8eUgkXhRdKIRdoWAwHh-yRtHIFqzdLuc7kyjR2Gi04iNJ90z6a-3FhoPQewMqdcnJ5xQAOvrwKwZ38rXW77DlljFbDVdkLpox_Bkxk2zyyF1g3rdgZqNuoQfaQPuTTVhRZxOp9JKAkKO7NnJvzMHVChgdLQX5g2XwL_ypMdLW236pmCE_7taiUPGzZ7A5V4ZDj-aHRxMyjR1D-PI9zqPuD_su_Fh2om-aOKNx1f2RVe2_u6QRhBQ58ZSB49RB7G0tMeNfF6jVSZKvMiJMN6-nBQ6dPj99Bglt_Of57HD5Tu8vDiZtSZiLmDkZeFFZ0rc1XZvCJeNLoystIrYGSbAljTpqSwgFl2h69SfyuKdNFrLxL_m00?></g></svg>