<?plantuml 1.2026.1?><svg xmlns="http://www.w3.org/2000/svg" xmlns:xlink="http://www.w3.org/1999/xlink" contentStyleType="text/css" data-diagram-type="CLASS" height="591px" preserveAspectRatio="none" style="width:621px;height:591px;background:#FFFFFF;" version="1.1" viewBox="0 0 621 591" width="621px" zoomAndPan="magnify"><defs/><g><!--class C_0004040499406162972682--><g class="entity" data-qualified-name="C_0004040499406162972682" data-source-line="1" id="ent0002"><rect fill="#F1F1F1" height="212.8828" rx="2.5" ry="2.5" style="stroke:#181818;stroke-width:0.5;" width="210.4404" x="7" y="7"/><ellipse cx="63.7212" cy="23" fill="#EB937F" rx="11" ry="11" style="stroke:#181818;stroke-width:1;"/><path d="M67.3354,29.5 L59.6157,29.5 L59.6157,17.1069 L67.3354,17.1069 L67.3354,19.2651 L62.0645,19.2651 L62.0645,21.938 L66.8374,21.938 L66.8374,24.0962 L62.0645,24.0962 L62.0645,27.3418 L67.3354,27.3418 Z " fill="#000000"/><text fill="#000000" font-family="sans-serif" font-size="14" lengthAdjust="spacing" textLength="88.498" x="84.2212" y="28.291">fsm_events_t</text><line style="stroke:#181818;stroke-width:0.5;" x1="8" x2="216.4404" y1="39" y2="39"/><text fill="#000000" font-family="sans-serif" font-size="14" lengthAdjust="spacing" textLength="82.2363" x="13" y="56.5352">EVENT_TICK</text><text fill="#000000" font-family="sans-serif" font-size="14" lengthAdjust="spacing" textLength="94.8828" x="13" y="73.0234">EVENT_ENTRY</text><text fill="#000000" font-family="sans-serif" font-size="14" lengthAdjust="spacing" textLength="79.7617" x="13" y="89.5117">EVENT_EXIT</text><text fill="#000000" font-family="sans-serif" font-size="14" lengthAdjust="spacing" textLength="169.1553" x="13" y="106">EVENT_ORDER_RECEIVED</text><text fill="#000000" font-family="sans-serif" font-size="14" lengthAdjust="spacing" textLength="161.7246" x="13" y="122.4883">EVENT_FLOOR_ARRIVED</text><text fill="#000000" font-family="sans-serif" font-size="14" lengthAdjust="spacing" textLength="160.5762" x="13" y="138.9766">EVENT_DOOR_TIMEOUT</text><text fill="#000000" font-family="sans-serif" font-size="14" lengthAdjust="spacing" textLength="149.8643" x="13" y="155.4648">EVENT_STOP_PRESSED</text><text fill="#000000" font-family="sans-serif" font-size="14" lengthAdjust="spacing" textLength="159.2979" x="13" y="171.9531">EVENT_STOP_RELEASED</text><text fill="#000000" font-family="sans-serif" font-size="14" lengthAdjust="spacing" textLength="148.1895" x="13" y="188.4414">EVENT_OBSTRUCTION</text><text fill="#000000" font-family="sans-serif" font-size="14" lengthAdjust="spacing" textLength="198.4404" x="13" y="204.9297">EVENT_OBSTRUCTION_CLEAR</text><line style="stroke:#181818;stroke-width:0.5;" x1="8" x2="216.4404" y1="211.8828" y2="211.8828"/></g><!--class C_0017405057006700428646--><g class="entity" data-qualified-name="C_0017405057006700428646" data-source-line="14" id="ent0003"><rect fill="#F1F1F1" height="64.4883" rx="2.5" ry="2.5" style="stroke:#181818;stroke-width:0.5;" width="133.5293" x="252.46" y="81.2"/><ellipse cx="296.2323" cy="97.2" fill="#ADD1B2" rx="11" ry="11" style="stroke:#181818;stroke-width:1;"/><path d="M298.7055,103.3431 Q298.1244,103.6419 297.4852,103.7913 Q296.8461,103.9407 296.1405,103.9407 Q293.6337,103.9407 292.3139,102.2889 Q290.994,100.637 290.994,97.5159 Q290.994,94.3865 292.3139,92.7347 Q293.6337,91.0828 296.1405,91.0828 Q296.8461,91.0828 297.4935,91.2322 Q298.141,91.3816 298.7055,91.6805 L298.7055,94.4031 Q298.0746,93.8221 297.4811,93.5523 Q296.8876,93.2825 296.2567,93.2825 Q294.912,93.2825 294.2272,94.3492 Q293.5424,95.4158 293.5424,97.5159 Q293.5424,99.6077 294.2272,100.6744 Q294.912,101.741 296.2567,101.741 Q296.8876,101.741 297.4811,101.4712 Q298.0746,101.2015 298.7055,100.6204 Z " fill="#000000"/><text fill="#000000" font-family="sans-serif" font-size="14" lengthAdjust="spacing" textLength="37.5908" x="316.6262" y="102.491">fsm_t</text><line style="stroke:#181818;stroke-width:0.5;" x1="253.46" x2="384.9893" y1="113.2" y2="113.2"/><line style="stroke:#181818;stroke-width:0.5;" x1="253.46" x2="384.9893" y1="121.2" y2="121.2"/><g data-visibility-modifier="PUBLIC_FIELD"><ellipse cx="263.46" cy="134.9441" fill="none" rx="3" ry="3" style="stroke:#038048;stroke-width:1;"/></g><text fill="#000000" font-family="sans-serif" font-size="14" lengthAdjust="spacing" textLength="107.5293" x="272.46" y="138.7352">state : p_state_f</text></g><!--class C_0000159017882169064821--><g class="entity" data-qualified-name="C_0000159017882169064821" data-source-line="19" id="ent0004"><rect fill="#F1F1F1" height="97.4648" rx="2.5" ry="2.5" style="stroke:#181818;stroke-width:0.5;" width="93.8037" x="421.32" y="64.71"/><ellipse cx="436.32" cy="80.71" fill="#EB937F" rx="11" ry="11" style="stroke:#181818;stroke-width:1;"/><path d="M439.9343,87.21 L432.2145,87.21 L432.2145,74.8169 L439.9343,74.8169 L439.9343,76.9751 L434.6633,76.9751 L434.6633,79.648 L439.4362,79.648 L439.4362,81.8062 L434.6633,81.8062 L434.6633,85.0518 L439.9343,85.0518 Z " fill="#000000"/><text fill="#000000" font-family="sans-serif" font-size="14" lengthAdjust="spacing" textLength="61.8037" x="450.32" y="86.001">Direction</text><line style="stroke:#181818;stroke-width:0.5;" x1="422.32" x2="514.1237" y1="96.71" y2="96.71"/><text fill="#000000" font-family="sans-serif" font-size="14" lengthAdjust="spacing" textLength="74.0537" x="427.32" y="114.2452">DIR_DOWN</text><text fill="#000000" font-family="sans-serif" font-size="14" lengthAdjust="spacing" textLength="65.3789" x="427.32" y="130.7334">DIR_STOP</text><text fill="#000000" font-family="sans-serif" font-size="14" lengthAdjust="spacing" textLength="47.8105" x="427.32" y="147.2217">DIR_UP</text><line style="stroke:#181818;stroke-width:0.5;" x1="422.32" x2="514.1237" y1="154.1748" y2="154.1748"/></g><!--class C_0001318154217281991402--><g class="entity" data-qualified-name="C_0001318154217281991402" data-source-line="25" id="ent0005"><rect fill="#F1F1F1" height="97.4648" rx="2.5" ry="2.5" style="stroke:#181818;stroke-width:0.5;" width="191.1152" x="16.66" y="304.62"/><ellipse cx="72.1063" cy="320.62" fill="#EB937F" rx="11" ry="11" style="stroke:#181818;stroke-width:1;"/><path d="M75.7205,327.12 L68.0008,327.12 L68.0008,314.7269 L75.7205,314.7269 L75.7205,316.8851 L70.4496,316.8851 L70.4496,319.558 L75.2225,319.558 L75.2225,321.7162 L70.4496,321.7162 L70.4496,324.9618 L75.7205,324.9618 Z " fill="#000000"/><text fill="#000000" font-family="sans-serif" font-size="14" lengthAdjust="spacing" textLength="71.7227" x="92.6063" y="325.911">OrderType</text><line style="stroke:#181818;stroke-width:0.5;" x1="17.66" x2="206.7752" y1="336.62" y2="336.62"/><text fill="#000000" font-family="sans-serif" font-size="14" lengthAdjust="spacing" textLength="152.8721" x="22.66" y="354.1552">ORDER_TYPE_HALL_UP</text><text fill="#000000" font-family="sans-serif" font-size="14" lengthAdjust="spacing" textLength="179.1152" x="22.66" y="370.6434">ORDER_TYPE_HALL_DOWN</text><text fill="#000000" font-family="sans-serif" font-size="14" lengthAdjust="spacing" textLength="120.9551" x="22.66" y="387.1317">ORDER_TYPE_CAB</text><line style="stroke:#181818;stroke-width:0.5;" x1="17.66" x2="206.7752" y1="394.0848" y2="394.0848"/></g><!--class C_0002636788184995723322--><g class="entity" data-qualified-name="C_0002636788184995723322" data-source-line="31" id="ent0006"><rect fill="#F1F1F1" height="97.4648" rx="2.5" ry="2.5" style="stroke:#181818;stroke-width:0.5;" width="150.5781" x="242.93" y="304.62"/><ellipse cx="281.1591" cy="320.62" fill="#EB937F" rx="11" ry="11" style="stroke:#181818;stroke-width:1;"/><path d="M284.7733,327.12 L277.0536,327.12 L277.0536,314.7269 L284.7733,314.7269 L284.7733,316.8851 L279.5023,316.8851 L279.5023,319.558 L284.2753,319.558 L284.2753,321.7162 L279.5023,321.7162 L279.5023,324.9618 L284.7733,324.9618 Z " fill="#000000"/><text fill="#000000" font-family="sans-serif" font-size="14" lengthAdjust="spacing" textLength="66.958" x="300.3211" y="325.911">DoorState</text><line style="stroke:#181818;stroke-width:0.5;" x1="243.93" x2="392.5081" y1="336.62" y2="336.62"/><text fill="#000000" font-family="sans-serif" font-size="14" lengthAdjust="spacing" textLength="101.7324" x="248.93" y="354.1552">DOOR_CLOSED</text><text fill="#000000" font-family="sans-serif" font-size="14" lengthAdjust="spacing" textLength="84.6357" x="248.93" y="370.6434">DOOR_OPEN</text><text fill="#000000" font-family="sans-serif" font-size="14" lengthAdjust="spacing" textLength="138.5781" x="248.93" y="387.1317">DOOR_OBSTRUCTED</text><line style="stroke:#181818;stroke-width:0.5;" x1="243.93" x2="392.5081" y1="394.0848" y2="394.0848"/></g><!--class C_0000649193453015759652--><g class="entity" data-qualified-name="C_0000649193453015759652" data-source-line="37" id="ent0007"><rect fill="#F1F1F1" height="146.9297" rx="2.5" ry="2.5" style="stroke:#181818;stroke-width:0.5;" width="186.043" x="428.2" y="279.89"/><ellipse cx="484.3538" cy="295.89" fill="#EB937F" rx="11" ry="11" style="stroke:#181818;stroke-width:1;"/><path d="M487.9681,302.39 L480.2483,302.39 L480.2483,289.9969 L487.9681,289.9969 L487.9681,292.1551 L482.6971,292.1551 L482.6971,294.828 L487.47,294.828 L487.47,296.9862 L482.6971,296.9862 L482.6971,300.2318 L487.9681,300.2318 Z " fill="#000000"/><text fill="#000000" font-family="sans-serif" font-size="14" lengthAdjust="spacing" textLength="65.2354" x="504.8538" y="301.181">state_id_t</text><line style="stroke:#181818;stroke-width:0.5;" x1="429.2" x2="613.243" y1="311.89" y2="311.89"/><text fill="#000000" font-family="sans-serif" font-size="14" lengthAdjust="spacing" textLength="76.7539" x="434.2" y="329.4252">STATE_INIT</text><text fill="#000000" font-family="sans-serif" font-size="14" lengthAdjust="spacing" textLength="79.0645" x="434.2" y="345.9134">STATE_IDLE</text><text fill="#000000" font-family="sans-serif" font-size="14" lengthAdjust="spacing" textLength="130.5117" x="434.2" y="362.4017">STATE_MOVING_UP</text><text fill="#000000" font-family="sans-serif" font-size="14" lengthAdjust="spacing" textLength="156.7549" x="434.2" y="378.89">STATE_MOVING_DOWN</text><text fill="#000000" font-family="sans-serif" font-size="14" lengthAdjust="spacing" textLength="134.1279" x="434.2" y="395.3783">STATE_DOOR_OPEN</text><text fill="#000000" font-family="sans-serif" font-size="14" lengthAdjust="spacing" textLength="174.043" x="434.2" y="411.8666">STATE_EMERGENCY_STOP</text><line style="stroke:#181818;stroke-width:0.5;" x1="429.2" x2="613.243" y1="418.8197" y2="418.8197"/></g><!--class C_0014238388821239506749--><g class="entity" data-qualified-name="C_0014238388821239506749" data-source-line="46" id="ent0008"><rect fill="#F1F1F1" height="97.4648" rx="2.5" ry="2.5" style="stroke:#181818;stroke-width:0.5;" width="134.0264" x="45.21" y="486.82"/><ellipse cx="60.21" cy="502.82" fill="#EB937F" rx="11" ry="11" style="stroke:#181818;stroke-width:1;"/><path d="M63.8243,509.32 L56.1045,509.32 L56.1045,496.9269 L63.8243,496.9269 L63.8243,499.0851 L58.5533,499.0851 L58.5533,501.758 L63.3262,501.758 L63.3262,503.9162 L58.5533,503.9162 L58.5533,507.1618 L63.8243,507.1618 Z " fill="#000000"/><text fill="#000000" font-family="sans-serif" font-size="14" lengthAdjust="spacing" textLength="102.0264" x="74.21" y="508.111">MotorDirection</text><line style="stroke:#181818;stroke-width:0.5;" x1="46.21" x2="178.2364" y1="518.82" y2="518.82"/><text fill="#000000" font-family="sans-serif" font-size="14" lengthAdjust="spacing" textLength="84.3965" x="51.21" y="536.3552">DIRN_DOWN</text><text fill="#000000" font-family="sans-serif" font-size="14" lengthAdjust="spacing" textLength="75.7217" x="51.21" y="552.8434">DIRN_STOP</text><text fill="#000000" font-family="sans-serif" font-size="14" lengthAdjust="spacing" textLength="58.1533" x="51.21" y="569.3317">DIRN_UP</text><line style="stroke:#181818;stroke-width:0.5;" x1="46.21" x2="178.2364" y1="576.2848" y2="576.2848"/></g><!--class C_0014322693820558075373--><g class="entity" data-qualified-name="C_0014322693820558075373" data-source-line="52" id="ent0009"><rect fill="#F1F1F1" height="97.4648" rx="2.5" ry="2.5" style="stroke:#181818;stroke-width:0.5;" width="161.2354" x="214.6" y="486.82"/><ellipse cx="252.9798" cy="502.82" fill="#EB937F" rx="11" ry="11" style="stroke:#181818;stroke-width:1;"/><path d="M256.594,509.32 L248.8743,509.32 L248.8743,496.9269 L256.594,496.9269 L256.594,499.0851 L251.323,499.0851 L251.323,501.758 L256.096,501.758 L256.096,503.9162 L251.323,503.9162 L251.323,507.1618 L256.594,507.1618 Z " fill="#000000"/><text fill="#000000" font-family="sans-serif" font-size="14" lengthAdjust="spacing" textLength="77.2803" x="272.1753" y="508.111">ButtonType</text><line style="stroke:#181818;stroke-width:0.5;" x1="215.6" x2="374.8354" y1="518.82" y2="518.82"/><text fill="#000000" font-family="sans-serif" font-size="14" lengthAdjust="spacing" textLength="122.9922" x="220.6" y="536.3552">BUTTON_HALL_UP</text><text fill="#000000" font-family="sans-serif" font-size="14" lengthAdjust="spacing" textLength="149.2354" x="220.6" y="552.8434">BUTTON_HALL_DOWN</text><text fill="#000000" font-family="sans-serif" font-size="14" lengthAdjust="spacing" textLength="91.0752" x="220.6" y="569.3317">BUTTON_CAB</text><line style="stroke:#181818;stroke-width:0.5;" x1="215.6" x2="374.8354" y1="576.2848" y2="576.2848"/></g><?plantuml-src TLDDZzem5BpdLqHSzj0MsOxjsBr1uh9HGu8SGyl9eektHLh8AWcxggh-zpeV9Dd22aMCvndclNaJSpeVtSbZUTJcnPogKbSJTrUwWGO0uFh3EGOKKiHzH1boJ7t_lQhxnn4RaIYjek1h1-qZjnVyFL8TJ6Kef9OY4D56X1tv9KvJgMTIZhYmfbIq5EdwyjjCfIkzaYBB-biD9KKiPWENpZCbru6AqkIQqO6zAvs_piFJhYnR1uRHeOy10SG7WDe78qOnxMw-LxQpQ-ryAAjTPTpFxhDka7wq4erda_1Gc8Vga9y6Wm4atFuPOmXI3YYstoE3RrIjI1X9wyctf07rs0rOhtgTjDYRGlr-DeCEz22312Fe8mOvXnYC5tcZQdNQ1QdjIkZxMHpN2lzJJHiZCfZDXsdplCXg1uOk4FMedGOocnhY8yz3uovkLEjfw-q7SLfljS7fIYGTwfPfAnVHrlB3VXnYQno7tCF4itxwX5CoLhrHjQgPcYcXeyIcjODXB3guJ3THigZjU7Dkl6YPeS_sB9P2BaGIRDjrNPfTvbLUN8S2OkGnZzLRHnudDc6O3mtVghQXIFfK97qiad4kvkUgoazlWW6nTPboZo5020C-yNnlh7LTjLhpjLBs_Rc4OdniEkY8DWpEtSASJ67NidTV3zKlrxv4fv-VpiUdZ-wBAKexkGkcT8gSkpZUB7lkFZ-Q7uLvRU_tD89JE6N_0000?></g></svg>